<?xml version="1.0" encoding="UTF-8"?>
<svg width="400" height="250" viewBox="0 0 400 250" fill="none" xmlns="http://www.w3.org/2000/svg">
  <!-- Dashboard background -->
  <rect x="10" y="10" width="380" height="230" rx="10" fill="#F5F5F5" stroke="#E0E0E0" stroke-width="1"/>
  
  <!-- Dashboard header -->
  <rect x="20" y="20" width="360" height="40" rx="5" fill="#FFFFFF" stroke="#E0E0E0" stroke-width="1"/>
  
  <!-- Dashboard sidebar -->
  <rect x="20" y="70" width="80" height="160" rx="5" fill="#FFFFFF" stroke="#E0E0E0" stroke-width="1"/>
  
  <!-- Dashboard main content area -->
  <rect x="110" y="70" width="270" height="70" rx="5" fill="#FFFFFF" stroke="#E0E0E0" stroke-width="1"/>
  <rect x="110" y="150" width="130" height="80" rx="5" fill="#FFFFFF" stroke="#E0E0E0" stroke-width="1"/>
  <rect x="250" y="150" width="130" height="80" rx="5" fill="#FFFFFF" stroke="#E0E0E0" stroke-width="1"/>
  
  <!-- Dashboard elements -->
  <!-- Header elements -->
  <circle cx="40" cy="40" r="10" fill="#000000"/>
  <rect x="60" y="35" width="60" height="10" rx="2" fill="#E0E0E0"/>
  <rect x="300" y="35" width="60" height="10" rx="5" fill="#00CC66"/>
  
  <!-- Sidebar elements -->
  <rect x="30" y="85" width="60" height="5" rx="2" fill="#E0E0E0"/>
  <rect x="30" y="100" width="60" height="5" rx="2" fill="#E0E0E0"/>
  <rect x="30" y="115" width="60" height="5" rx="2" fill="#E0E0E0"/>
  <rect x="30" y="130" width="60" height="5" rx="2" fill="#E0E0E0"/>
  <rect x="30" y="145" width="60" height="5" rx="2" fill="#E0E0E0"/>
  
  <!-- Chart elements -->
  <rect x="120" y="85" width="40" height="40" rx="2" fill="#00CC66" opacity="0.7"/>
  <rect x="170" y="95" width="40" height="30" rx="2" fill="#00CC66" opacity="0.5"/>
  <rect x="220" y="105" width="40" height="20" rx="2" fill="#00CC66" opacity="0.3"/>
  <rect x="270" y="115" width="40" height="10" rx="2" fill="#00CC66" opacity="0.2"/>
  <line x1="120" y1="130" x2="310" y2="130" stroke="#E0E0E0" stroke-width="1"/>
  
  <!-- Bottom left card elements -->
  <circle cx="130" cy="170" r="10" fill="#E0E0E0"/>
  <rect x="150" y="165" width="80" height="5" rx="2" fill="#E0E0E0"/>
  <rect x="150" y="175" width="60" height="5" rx="2" fill="#E0E0E0"/>
  <rect x="120" y="195" width="110" height="25" rx="2" fill="#F5F5F5"/>
  
  <!-- Bottom right card elements -->
  <circle cx="270" cy="170" r="15" fill="#00CC66" opacity="0.2"/>
  <circle cx="270" cy="170" r="10" fill="#00CC66" opacity="0.5"/>
  <circle cx="270" cy="170" r="5" fill="#00CC66"/>
  <rect x="290" y="165" width="80" height="5" rx="2" fill="#E0E0E0"/>
  <rect x="290" y="175" width="60" height="5" rx="2" fill="#E0E0E0"/>
  <rect x="260" y="195" width="110" height="5" rx="2" fill="#E0E0E0"/>
  <rect x="260" y="205" width="90" height="5" rx="2" fill="#E0E0E0"/>
  <rect x="260" y="215" width="70" height="5" rx="2" fill="#E0E0E0"/>
</svg>
